<svg width="32" height="32" viewBox="0 0 32 32" fill="none" xmlns="http://www.w3.org/2000/svg">
  <rect width="32" height="32" rx="8" fill="#1c1b1a" stroke="#423d39"/>
  <g stroke="url(#lg)" stroke-width="2" stroke-linecap="round">
    <path d="M9 12V9.5A.5.5 0 0 1 9.5 9H12"/>
    <path d="M20 9h2.5a.5.5 0 0 1 .5.5V12"/>
    <path d="M23 20v2.5a.5.5 0 0 1-.5.5H20"/>
    <path d="M12 23H9.5a.5.5 0 0 1-.5-.5V20"/>
    <path d="M16 11.5v2M16 18.5v2M11.5 16h2M18.5 16h2"/>
  </g>
  <circle cx="16" cy="16" r="3.4" stroke="url(#lg)" stroke-width="2"/>
  <circle cx="16" cy="16" r="1.4" fill="url(#lg)"/>
  <defs>
    <linearGradient id="lg" x1="9" y1="9" x2="23" y2="23">
      <stop stop-color="#e08a52"/>
      <stop offset="1" stop-color="#b5683c"/>
    </linearGradient>
  </defs>
</svg>
